<mxfile host="app.diagrams.net" modified="2022-08-09T17:43:40.838Z" agent="5.0 (X11)" etag="g_6ijtCMZrMdMQeKs9Rm" version="20.0.4" type="github">
  <diagram name="1" id="e7e014a7-5840-1c2e-5031-d8a46d1fe8dd">
    <mxGraphModel dx="2347" dy="965" grid="1" gridSize="10" guides="1" tooltips="1" connect="1" arrows="1" fold="1" page="1" pageScale="1" pageWidth="1169" pageHeight="826" background="none" math="0" shadow="0">
      <root>
        <mxCell id="0" />
        <mxCell id="1" parent="0" />
        <mxCell id="QbTCmA_wk1OMmVpmayp_-145" value="" style="group" vertex="1" connectable="0" parent="1">
          <mxGeometry x="330" y="540" width="771" height="230" as="geometry" />
        </mxCell>
        <mxCell id="QbTCmA_wk1OMmVpmayp_-81" value="" style="group" vertex="1" connectable="0" parent="QbTCmA_wk1OMmVpmayp_-145">
          <mxGeometry x="378" y="1" width="393" height="210" as="geometry" />
        </mxCell>
        <mxCell id="QbTCmA_wk1OMmVpmayp_-56" value="" style="group" vertex="1" connectable="0" parent="QbTCmA_wk1OMmVpmayp_-81">
          <mxGeometry width="290" height="190" as="geometry" />
        </mxCell>
        <mxCell id="QbTCmA_wk1OMmVpmayp_-52" style="edgeStyle=orthogonalEdgeStyle;rounded=0;orthogonalLoop=1;jettySize=auto;html=1;entryX=0;entryY=0.5;entryDx=0;entryDy=0;" edge="1" parent="QbTCmA_wk1OMmVpmayp_-56" target="QbTCmA_wk1OMmVpmayp_-45">
          <mxGeometry relative="1" as="geometry">
            <mxPoint x="170" y="90" as="sourcePoint" />
          </mxGeometry>
        </mxCell>
        <mxCell id="QbTCmA_wk1OMmVpmayp_-72" style="edgeStyle=orthogonalEdgeStyle;rounded=0;orthogonalLoop=1;jettySize=auto;html=1;entryX=0.5;entryY=1;entryDx=0;entryDy=0;" edge="1" parent="QbTCmA_wk1OMmVpmayp_-56" source="QbTCmA_wk1OMmVpmayp_-41" target="QbTCmA_wk1OMmVpmayp_-47">
          <mxGeometry relative="1" as="geometry" />
        </mxCell>
        <mxCell id="QbTCmA_wk1OMmVpmayp_-41" value="CLIENTE" style="rounded=0;whiteSpace=wrap;html=1;" vertex="1" parent="QbTCmA_wk1OMmVpmayp_-56">
          <mxGeometry x="80" y="90" width="90" height="40" as="geometry" />
        </mxCell>
        <mxCell id="QbTCmA_wk1OMmVpmayp_-42" value="NIP" style="ellipse;whiteSpace=wrap;html=1;" vertex="1" parent="QbTCmA_wk1OMmVpmayp_-56">
          <mxGeometry width="80" height="40" as="geometry" />
        </mxCell>
        <mxCell id="QbTCmA_wk1OMmVpmayp_-49" style="edgeStyle=orthogonalEdgeStyle;rounded=0;orthogonalLoop=1;jettySize=auto;html=1;entryX=0.5;entryY=1;entryDx=0;entryDy=0;exitX=0.25;exitY=0;exitDx=0;exitDy=0;" edge="1" parent="QbTCmA_wk1OMmVpmayp_-56" source="QbTCmA_wk1OMmVpmayp_-41" target="QbTCmA_wk1OMmVpmayp_-42">
          <mxGeometry relative="1" as="geometry" />
        </mxCell>
        <mxCell id="QbTCmA_wk1OMmVpmayp_-44" value="Direccion" style="ellipse;whiteSpace=wrap;html=1;" vertex="1" parent="QbTCmA_wk1OMmVpmayp_-56">
          <mxGeometry x="210" y="100" width="80" height="40" as="geometry" />
        </mxCell>
        <mxCell id="QbTCmA_wk1OMmVpmayp_-53" style="edgeStyle=orthogonalEdgeStyle;rounded=0;orthogonalLoop=1;jettySize=auto;html=1;entryX=0;entryY=0.5;entryDx=0;entryDy=0;" edge="1" parent="QbTCmA_wk1OMmVpmayp_-56" source="QbTCmA_wk1OMmVpmayp_-41" target="QbTCmA_wk1OMmVpmayp_-44">
          <mxGeometry relative="1" as="geometry" />
        </mxCell>
        <mxCell id="QbTCmA_wk1OMmVpmayp_-45" value="Telefono" style="ellipse;whiteSpace=wrap;html=1;" vertex="1" parent="QbTCmA_wk1OMmVpmayp_-56">
          <mxGeometry x="210" y="50" width="80" height="40" as="geometry" />
        </mxCell>
        <mxCell id="QbTCmA_wk1OMmVpmayp_-47" value="Name" style="ellipse;whiteSpace=wrap;html=1;" vertex="1" parent="QbTCmA_wk1OMmVpmayp_-56">
          <mxGeometry x="100" width="80" height="40" as="geometry" />
        </mxCell>
        <mxCell id="QbTCmA_wk1OMmVpmayp_-73" value="Numero" style="ellipse;whiteSpace=wrap;html=1;" vertex="1" parent="QbTCmA_wk1OMmVpmayp_-81">
          <mxGeometry x="120" y="170" width="80" height="40" as="geometry" />
        </mxCell>
        <mxCell id="QbTCmA_wk1OMmVpmayp_-74" value="Comuna" style="ellipse;whiteSpace=wrap;html=1;" vertex="1" parent="QbTCmA_wk1OMmVpmayp_-81">
          <mxGeometry x="313" y="160" width="80" height="40" as="geometry" />
        </mxCell>
        <mxCell id="QbTCmA_wk1OMmVpmayp_-75" value="Calle" style="ellipse;whiteSpace=wrap;html=1;" vertex="1" parent="QbTCmA_wk1OMmVpmayp_-81">
          <mxGeometry x="220" y="170" width="80" height="40" as="geometry" />
        </mxCell>
        <mxCell id="QbTCmA_wk1OMmVpmayp_-76" value="Ciudad" style="ellipse;whiteSpace=wrap;html=1;" vertex="1" parent="QbTCmA_wk1OMmVpmayp_-81">
          <mxGeometry x="313" y="100" width="80" height="40" as="geometry" />
        </mxCell>
        <mxCell id="QbTCmA_wk1OMmVpmayp_-77" style="edgeStyle=orthogonalEdgeStyle;rounded=0;orthogonalLoop=1;jettySize=auto;html=1;exitX=1;exitY=0.5;exitDx=0;exitDy=0;" edge="1" parent="QbTCmA_wk1OMmVpmayp_-81" source="QbTCmA_wk1OMmVpmayp_-44">
          <mxGeometry relative="1" as="geometry">
            <mxPoint x="310" y="119.53846153846143" as="targetPoint" />
          </mxGeometry>
        </mxCell>
        <mxCell id="QbTCmA_wk1OMmVpmayp_-78" style="edgeStyle=orthogonalEdgeStyle;rounded=0;orthogonalLoop=1;jettySize=auto;html=1;exitX=1;exitY=1;exitDx=0;exitDy=0;entryX=0;entryY=0;entryDx=0;entryDy=0;" edge="1" parent="QbTCmA_wk1OMmVpmayp_-81" source="QbTCmA_wk1OMmVpmayp_-44" target="QbTCmA_wk1OMmVpmayp_-74">
          <mxGeometry relative="1" as="geometry">
            <Array as="points">
              <mxPoint x="278" y="140" />
              <mxPoint x="325" y="140" />
            </Array>
          </mxGeometry>
        </mxCell>
        <mxCell id="QbTCmA_wk1OMmVpmayp_-79" style="edgeStyle=orthogonalEdgeStyle;rounded=0;orthogonalLoop=1;jettySize=auto;html=1;exitX=0.5;exitY=1;exitDx=0;exitDy=0;entryX=0.5;entryY=0;entryDx=0;entryDy=0;" edge="1" parent="QbTCmA_wk1OMmVpmayp_-81" source="QbTCmA_wk1OMmVpmayp_-44" target="QbTCmA_wk1OMmVpmayp_-75">
          <mxGeometry relative="1" as="geometry" />
        </mxCell>
        <mxCell id="QbTCmA_wk1OMmVpmayp_-80" style="edgeStyle=orthogonalEdgeStyle;rounded=0;orthogonalLoop=1;jettySize=auto;html=1;exitX=0;exitY=1;exitDx=0;exitDy=0;entryX=1;entryY=0;entryDx=0;entryDy=0;" edge="1" parent="QbTCmA_wk1OMmVpmayp_-81" source="QbTCmA_wk1OMmVpmayp_-44" target="QbTCmA_wk1OMmVpmayp_-73">
          <mxGeometry relative="1" as="geometry" />
        </mxCell>
        <mxCell id="QbTCmA_wk1OMmVpmayp_-137" value="" style="group" vertex="1" connectable="0" parent="QbTCmA_wk1OMmVpmayp_-145">
          <mxGeometry width="290" height="230" as="geometry" />
        </mxCell>
        <mxCell id="QbTCmA_wk1OMmVpmayp_-125" value="" style="group" vertex="1" connectable="0" parent="QbTCmA_wk1OMmVpmayp_-137">
          <mxGeometry width="290" height="190" as="geometry" />
        </mxCell>
        <mxCell id="QbTCmA_wk1OMmVpmayp_-136" value="" style="group" vertex="1" connectable="0" parent="QbTCmA_wk1OMmVpmayp_-125">
          <mxGeometry x="-32" width="212" height="190" as="geometry" />
        </mxCell>
        <mxCell id="QbTCmA_wk1OMmVpmayp_-129" value="Venta" style="rounded=0;whiteSpace=wrap;html=1;" vertex="1" parent="QbTCmA_wk1OMmVpmayp_-136">
          <mxGeometry x="112" y="90" width="90" height="40" as="geometry" />
        </mxCell>
        <mxCell id="QbTCmA_wk1OMmVpmayp_-130" value="Fecha" style="ellipse;whiteSpace=wrap;html=1;" vertex="1" parent="QbTCmA_wk1OMmVpmayp_-136">
          <mxGeometry width="100" height="40" as="geometry" />
        </mxCell>
        <mxCell id="QbTCmA_wk1OMmVpmayp_-128" style="edgeStyle=orthogonalEdgeStyle;rounded=0;orthogonalLoop=1;jettySize=auto;html=1;entryX=0.5;entryY=1;entryDx=0;entryDy=0;" edge="1" parent="QbTCmA_wk1OMmVpmayp_-136" source="QbTCmA_wk1OMmVpmayp_-129" target="QbTCmA_wk1OMmVpmayp_-130">
          <mxGeometry relative="1" as="geometry" />
        </mxCell>
        <mxCell id="QbTCmA_wk1OMmVpmayp_-132" value="Descuento" style="ellipse;whiteSpace=wrap;html=1;" vertex="1" parent="QbTCmA_wk1OMmVpmayp_-136">
          <mxGeometry y="150" width="80" height="40" as="geometry" />
        </mxCell>
        <mxCell id="QbTCmA_wk1OMmVpmayp_-134" style="edgeStyle=orthogonalEdgeStyle;rounded=0;orthogonalLoop=1;jettySize=auto;html=1;exitX=0;exitY=1;exitDx=0;exitDy=0;entryX=1;entryY=0.5;entryDx=0;entryDy=0;" edge="1" parent="QbTCmA_wk1OMmVpmayp_-136" source="QbTCmA_wk1OMmVpmayp_-129" target="QbTCmA_wk1OMmVpmayp_-132">
          <mxGeometry relative="1" as="geometry" />
        </mxCell>
        <mxCell id="QbTCmA_wk1OMmVpmayp_-154" value="1 : N" style="text;html=1;strokeColor=none;fillColor=none;align=center;verticalAlign=middle;whiteSpace=wrap;rounded=0;" vertex="1" parent="QbTCmA_wk1OMmVpmayp_-136">
          <mxGeometry x="152" y="30" width="60" height="30" as="geometry" />
        </mxCell>
        <mxCell id="QbTCmA_wk1OMmVpmayp_-131" value="Monto_final" style="ellipse;whiteSpace=wrap;html=1;" vertex="1" parent="QbTCmA_wk1OMmVpmayp_-137">
          <mxGeometry x="85" y="190" width="80" height="40" as="geometry" />
        </mxCell>
        <mxCell id="QbTCmA_wk1OMmVpmayp_-135" style="edgeStyle=orthogonalEdgeStyle;rounded=0;orthogonalLoop=1;jettySize=auto;html=1;exitX=0.5;exitY=1;exitDx=0;exitDy=0;entryX=0.5;entryY=0;entryDx=0;entryDy=0;" edge="1" parent="QbTCmA_wk1OMmVpmayp_-137" source="QbTCmA_wk1OMmVpmayp_-129" target="QbTCmA_wk1OMmVpmayp_-131">
          <mxGeometry relative="1" as="geometry" />
        </mxCell>
        <mxCell id="QbTCmA_wk1OMmVpmayp_-152" value="ID_venta" style="ellipse;whiteSpace=wrap;html=1;" vertex="1" parent="QbTCmA_wk1OMmVpmayp_-137">
          <mxGeometry x="190" y="170" width="80" height="40" as="geometry" />
        </mxCell>
        <mxCell id="QbTCmA_wk1OMmVpmayp_-153" style="edgeStyle=orthogonalEdgeStyle;rounded=0;orthogonalLoop=1;jettySize=auto;html=1;exitX=1;exitY=1;exitDx=0;exitDy=0;entryX=0.5;entryY=0;entryDx=0;entryDy=0;" edge="1" parent="QbTCmA_wk1OMmVpmayp_-137" source="QbTCmA_wk1OMmVpmayp_-129" target="QbTCmA_wk1OMmVpmayp_-152">
          <mxGeometry relative="1" as="geometry" />
        </mxCell>
        <mxCell id="QbTCmA_wk1OMmVpmayp_-139" style="edgeStyle=orthogonalEdgeStyle;rounded=0;orthogonalLoop=1;jettySize=auto;html=1;startArrow=none;" edge="1" parent="QbTCmA_wk1OMmVpmayp_-145" source="QbTCmA_wk1OMmVpmayp_-141" target="QbTCmA_wk1OMmVpmayp_-41">
          <mxGeometry relative="1" as="geometry" />
        </mxCell>
        <mxCell id="QbTCmA_wk1OMmVpmayp_-140" style="edgeStyle=orthogonalEdgeStyle;rounded=0;orthogonalLoop=1;jettySize=auto;html=1;entryX=1;entryY=0.5;entryDx=0;entryDy=0;startArrow=none;" edge="1" parent="QbTCmA_wk1OMmVpmayp_-145" source="QbTCmA_wk1OMmVpmayp_-143" target="QbTCmA_wk1OMmVpmayp_-129">
          <mxGeometry relative="1" as="geometry" />
        </mxCell>
        <mxCell id="QbTCmA_wk1OMmVpmayp_-138" value="Tiene" style="rhombus;whiteSpace=wrap;html=1;" vertex="1" parent="QbTCmA_wk1OMmVpmayp_-145">
          <mxGeometry x="278" y="71" width="80" height="80" as="geometry" />
        </mxCell>
        <mxCell id="QbTCmA_wk1OMmVpmayp_-141" value="1 : N" style="text;html=1;strokeColor=none;fillColor=none;align=center;verticalAlign=middle;whiteSpace=wrap;rounded=0;" vertex="1" parent="QbTCmA_wk1OMmVpmayp_-145">
          <mxGeometry x="364" y="95" width="60" height="30" as="geometry" />
        </mxCell>
        <mxCell id="QbTCmA_wk1OMmVpmayp_-142" value="" style="edgeStyle=orthogonalEdgeStyle;rounded=0;orthogonalLoop=1;jettySize=auto;html=1;endArrow=none;" edge="1" parent="QbTCmA_wk1OMmVpmayp_-145" source="QbTCmA_wk1OMmVpmayp_-138" target="QbTCmA_wk1OMmVpmayp_-141">
          <mxGeometry relative="1" as="geometry">
            <mxPoint x="358" y="111" as="sourcePoint" />
            <mxPoint x="458" y="111" as="targetPoint" />
          </mxGeometry>
        </mxCell>
        <mxCell id="QbTCmA_wk1OMmVpmayp_-143" value="1:1" style="text;html=1;strokeColor=none;fillColor=none;align=center;verticalAlign=middle;whiteSpace=wrap;rounded=0;" vertex="1" parent="QbTCmA_wk1OMmVpmayp_-145">
          <mxGeometry x="200" y="95" width="60" height="30" as="geometry" />
        </mxCell>
        <mxCell id="QbTCmA_wk1OMmVpmayp_-144" value="" style="edgeStyle=orthogonalEdgeStyle;rounded=0;orthogonalLoop=1;jettySize=auto;html=1;entryX=1;entryY=0.5;entryDx=0;entryDy=0;endArrow=none;" edge="1" parent="QbTCmA_wk1OMmVpmayp_-145" source="QbTCmA_wk1OMmVpmayp_-138" target="QbTCmA_wk1OMmVpmayp_-143">
          <mxGeometry relative="1" as="geometry">
            <mxPoint x="278.0769230769231" y="111.07692307692287" as="sourcePoint" />
            <mxPoint x="188" y="110.00000000000023" as="targetPoint" />
          </mxGeometry>
        </mxCell>
        <mxCell id="QbTCmA_wk1OMmVpmayp_-147" value="" style="group" vertex="1" connectable="0" parent="1">
          <mxGeometry x="30" y="50" width="953" height="228" as="geometry" />
        </mxCell>
        <mxCell id="QbTCmA_wk1OMmVpmayp_-57" value="" style="group" vertex="1" connectable="0" parent="QbTCmA_wk1OMmVpmayp_-147">
          <mxGeometry x="663" width="290" height="190" as="geometry" />
        </mxCell>
        <mxCell id="QbTCmA_wk1OMmVpmayp_-58" style="edgeStyle=orthogonalEdgeStyle;rounded=0;orthogonalLoop=1;jettySize=auto;html=1;entryX=0;entryY=0.5;entryDx=0;entryDy=0;" edge="1" parent="QbTCmA_wk1OMmVpmayp_-57" target="QbTCmA_wk1OMmVpmayp_-66">
          <mxGeometry relative="1" as="geometry">
            <mxPoint x="170" y="90" as="sourcePoint" />
          </mxGeometry>
        </mxCell>
        <mxCell id="QbTCmA_wk1OMmVpmayp_-59" value="&lt;div&gt;ROVEEDOR&lt;/div&gt;" style="rounded=0;whiteSpace=wrap;html=1;" vertex="1" parent="QbTCmA_wk1OMmVpmayp_-57">
          <mxGeometry x="80" y="90" width="90" height="40" as="geometry" />
        </mxCell>
        <mxCell id="QbTCmA_wk1OMmVpmayp_-60" value="NIP" style="ellipse;whiteSpace=wrap;html=1;" vertex="1" parent="QbTCmA_wk1OMmVpmayp_-57">
          <mxGeometry width="80" height="40" as="geometry" />
        </mxCell>
        <mxCell id="QbTCmA_wk1OMmVpmayp_-61" style="edgeStyle=orthogonalEdgeStyle;rounded=0;orthogonalLoop=1;jettySize=auto;html=1;entryX=0.5;entryY=1;entryDx=0;entryDy=0;exitX=0.25;exitY=0;exitDx=0;exitDy=0;" edge="1" parent="QbTCmA_wk1OMmVpmayp_-57" source="QbTCmA_wk1OMmVpmayp_-59" target="QbTCmA_wk1OMmVpmayp_-60">
          <mxGeometry relative="1" as="geometry" />
        </mxCell>
        <mxCell id="QbTCmA_wk1OMmVpmayp_-62" value="Web" style="ellipse;whiteSpace=wrap;html=1;" vertex="1" parent="QbTCmA_wk1OMmVpmayp_-57">
          <mxGeometry x="210" y="150" width="80" height="40" as="geometry" />
        </mxCell>
        <mxCell id="QbTCmA_wk1OMmVpmayp_-63" style="edgeStyle=orthogonalEdgeStyle;rounded=0;orthogonalLoop=1;jettySize=auto;html=1;entryX=0;entryY=0.5;entryDx=0;entryDy=0;exitX=1;exitY=1;exitDx=0;exitDy=0;" edge="1" parent="QbTCmA_wk1OMmVpmayp_-57" source="QbTCmA_wk1OMmVpmayp_-59" target="QbTCmA_wk1OMmVpmayp_-62">
          <mxGeometry relative="1" as="geometry">
            <Array as="points">
              <mxPoint x="190" y="130" />
              <mxPoint x="190" y="170" />
            </Array>
          </mxGeometry>
        </mxCell>
        <mxCell id="QbTCmA_wk1OMmVpmayp_-64" value="Telefono" style="ellipse;whiteSpace=wrap;html=1;" vertex="1" parent="QbTCmA_wk1OMmVpmayp_-57">
          <mxGeometry x="210" y="100" width="80" height="40" as="geometry" />
        </mxCell>
        <mxCell id="QbTCmA_wk1OMmVpmayp_-65" style="edgeStyle=orthogonalEdgeStyle;rounded=0;orthogonalLoop=1;jettySize=auto;html=1;entryX=0;entryY=0.5;entryDx=0;entryDy=0;" edge="1" parent="QbTCmA_wk1OMmVpmayp_-57" source="QbTCmA_wk1OMmVpmayp_-59" target="QbTCmA_wk1OMmVpmayp_-64">
          <mxGeometry relative="1" as="geometry" />
        </mxCell>
        <mxCell id="QbTCmA_wk1OMmVpmayp_-66" value="Direccion" style="ellipse;whiteSpace=wrap;html=1;" vertex="1" parent="QbTCmA_wk1OMmVpmayp_-57">
          <mxGeometry x="210" y="50" width="80" height="40" as="geometry" />
        </mxCell>
        <mxCell id="QbTCmA_wk1OMmVpmayp_-67" value="NIT" style="ellipse;whiteSpace=wrap;html=1;" vertex="1" parent="QbTCmA_wk1OMmVpmayp_-57">
          <mxGeometry x="100" width="80" height="40" as="geometry" />
        </mxCell>
        <mxCell id="QbTCmA_wk1OMmVpmayp_-68" style="edgeStyle=orthogonalEdgeStyle;rounded=0;orthogonalLoop=1;jettySize=auto;html=1;entryX=0.5;entryY=1;entryDx=0;entryDy=0;exitX=0.658;exitY=0.042;exitDx=0;exitDy=0;exitPerimeter=0;" edge="1" parent="QbTCmA_wk1OMmVpmayp_-57" source="QbTCmA_wk1OMmVpmayp_-59" target="QbTCmA_wk1OMmVpmayp_-67">
          <mxGeometry relative="1" as="geometry" />
        </mxCell>
        <mxCell id="QbTCmA_wk1OMmVpmayp_-69" value="Name" style="ellipse;whiteSpace=wrap;html=1;" vertex="1" parent="QbTCmA_wk1OMmVpmayp_-57">
          <mxGeometry x="210" width="80" height="40" as="geometry" />
        </mxCell>
        <mxCell id="QbTCmA_wk1OMmVpmayp_-70" style="edgeStyle=orthogonalEdgeStyle;rounded=0;orthogonalLoop=1;jettySize=auto;html=1;entryX=0;entryY=0.5;entryDx=0;entryDy=0;exitX=0.75;exitY=0;exitDx=0;exitDy=0;" edge="1" parent="QbTCmA_wk1OMmVpmayp_-57" source="QbTCmA_wk1OMmVpmayp_-59" target="QbTCmA_wk1OMmVpmayp_-69">
          <mxGeometry relative="1" as="geometry">
            <Array as="points">
              <mxPoint x="150" y="50" />
              <mxPoint x="187" y="50" />
              <mxPoint x="187" y="20" />
            </Array>
          </mxGeometry>
        </mxCell>
        <mxCell id="QbTCmA_wk1OMmVpmayp_-106" value="1:1" style="text;html=1;strokeColor=none;fillColor=none;align=center;verticalAlign=middle;whiteSpace=wrap;rounded=0;" vertex="1" parent="QbTCmA_wk1OMmVpmayp_-57">
          <mxGeometry x="67" y="140" width="60" height="30" as="geometry" />
        </mxCell>
        <mxCell id="QbTCmA_wk1OMmVpmayp_-82" value="" style="group" vertex="1" connectable="0" parent="QbTCmA_wk1OMmVpmayp_-147">
          <mxGeometry x="330" width="290" height="190" as="geometry" />
        </mxCell>
        <mxCell id="QbTCmA_wk1OMmVpmayp_-83" style="edgeStyle=orthogonalEdgeStyle;rounded=0;orthogonalLoop=1;jettySize=auto;html=1;entryX=0.375;entryY=0.95;entryDx=0;entryDy=0;entryPerimeter=0;" edge="1" parent="QbTCmA_wk1OMmVpmayp_-82" target="QbTCmA_wk1OMmVpmayp_-91">
          <mxGeometry relative="1" as="geometry">
            <mxPoint x="170" y="90" as="sourcePoint" />
            <Array as="points">
              <mxPoint x="170" y="58" />
              <mxPoint x="230" y="58" />
            </Array>
          </mxGeometry>
        </mxCell>
        <mxCell id="QbTCmA_wk1OMmVpmayp_-96" style="edgeStyle=orthogonalEdgeStyle;rounded=0;orthogonalLoop=1;jettySize=auto;html=1;exitX=0.5;exitY=0;exitDx=0;exitDy=0;entryX=0.5;entryY=1;entryDx=0;entryDy=0;" edge="1" parent="QbTCmA_wk1OMmVpmayp_-82" source="QbTCmA_wk1OMmVpmayp_-84" target="QbTCmA_wk1OMmVpmayp_-94">
          <mxGeometry relative="1" as="geometry" />
        </mxCell>
        <mxCell id="QbTCmA_wk1OMmVpmayp_-84" value="PRODUCTO" style="rounded=0;whiteSpace=wrap;html=1;" vertex="1" parent="QbTCmA_wk1OMmVpmayp_-82">
          <mxGeometry x="80" y="90" width="90" height="40" as="geometry" />
        </mxCell>
        <mxCell id="QbTCmA_wk1OMmVpmayp_-85" value="iD_PRODUCTO" style="ellipse;whiteSpace=wrap;html=1;" vertex="1" parent="QbTCmA_wk1OMmVpmayp_-82">
          <mxGeometry x="-20" width="100" height="40" as="geometry" />
        </mxCell>
        <mxCell id="QbTCmA_wk1OMmVpmayp_-86" style="edgeStyle=orthogonalEdgeStyle;rounded=0;orthogonalLoop=1;jettySize=auto;html=1;entryX=0.5;entryY=1;entryDx=0;entryDy=0;exitX=0.25;exitY=0;exitDx=0;exitDy=0;" edge="1" parent="QbTCmA_wk1OMmVpmayp_-82" source="QbTCmA_wk1OMmVpmayp_-84" target="QbTCmA_wk1OMmVpmayp_-85">
          <mxGeometry relative="1" as="geometry" />
        </mxCell>
        <mxCell id="QbTCmA_wk1OMmVpmayp_-89" value="Stock" style="ellipse;whiteSpace=wrap;html=1;" vertex="1" parent="QbTCmA_wk1OMmVpmayp_-82">
          <mxGeometry x="210" y="68" width="80" height="40" as="geometry" />
        </mxCell>
        <mxCell id="QbTCmA_wk1OMmVpmayp_-90" style="edgeStyle=orthogonalEdgeStyle;rounded=0;orthogonalLoop=1;jettySize=auto;html=1;entryX=0;entryY=0.5;entryDx=0;entryDy=0;" edge="1" parent="QbTCmA_wk1OMmVpmayp_-82" source="QbTCmA_wk1OMmVpmayp_-84" target="QbTCmA_wk1OMmVpmayp_-89">
          <mxGeometry relative="1" as="geometry" />
        </mxCell>
        <mxCell id="QbTCmA_wk1OMmVpmayp_-91" value="Precio" style="ellipse;whiteSpace=wrap;html=1;" vertex="1" parent="QbTCmA_wk1OMmVpmayp_-82">
          <mxGeometry x="200" width="80" height="40" as="geometry" />
        </mxCell>
        <mxCell id="QbTCmA_wk1OMmVpmayp_-94" value="Name" style="ellipse;whiteSpace=wrap;html=1;" vertex="1" parent="QbTCmA_wk1OMmVpmayp_-82">
          <mxGeometry x="90" width="80" height="40" as="geometry" />
        </mxCell>
        <mxCell id="QbTCmA_wk1OMmVpmayp_-105" value="1:N" style="text;html=1;strokeColor=none;fillColor=none;align=center;verticalAlign=middle;whiteSpace=wrap;rounded=0;" vertex="1" parent="QbTCmA_wk1OMmVpmayp_-82">
          <mxGeometry x="160" y="138" width="60" height="30" as="geometry" />
        </mxCell>
        <mxCell id="QbTCmA_wk1OMmVpmayp_-123" value="1:1" style="text;html=1;strokeColor=none;fillColor=none;align=center;verticalAlign=middle;whiteSpace=wrap;rounded=0;" vertex="1" parent="QbTCmA_wk1OMmVpmayp_-82">
          <mxGeometry x="15" y="108" width="60" height="30" as="geometry" />
        </mxCell>
        <mxCell id="QbTCmA_wk1OMmVpmayp_-151" value="1 : N" style="text;html=1;strokeColor=none;fillColor=none;align=center;verticalAlign=middle;whiteSpace=wrap;rounded=0;" vertex="1" parent="QbTCmA_wk1OMmVpmayp_-82">
          <mxGeometry x="60" y="150" width="60" height="30" as="geometry" />
        </mxCell>
        <mxCell id="QbTCmA_wk1OMmVpmayp_-101" style="edgeStyle=orthogonalEdgeStyle;rounded=0;orthogonalLoop=1;jettySize=auto;html=1;exitX=1;exitY=0.5;exitDx=0;exitDy=0;entryX=0.5;entryY=1;entryDx=0;entryDy=0;" edge="1" parent="QbTCmA_wk1OMmVpmayp_-147" source="QbTCmA_wk1OMmVpmayp_-97" target="QbTCmA_wk1OMmVpmayp_-59">
          <mxGeometry relative="1" as="geometry" />
        </mxCell>
        <mxCell id="QbTCmA_wk1OMmVpmayp_-104" style="edgeStyle=orthogonalEdgeStyle;rounded=0;orthogonalLoop=1;jettySize=auto;html=1;exitX=0;exitY=0.5;exitDx=0;exitDy=0;entryX=1;entryY=1;entryDx=0;entryDy=0;" edge="1" parent="QbTCmA_wk1OMmVpmayp_-147" source="QbTCmA_wk1OMmVpmayp_-97" target="QbTCmA_wk1OMmVpmayp_-84">
          <mxGeometry relative="1" as="geometry" />
        </mxCell>
        <mxCell id="QbTCmA_wk1OMmVpmayp_-97" value="Tiene" style="rhombus;whiteSpace=wrap;html=1;" vertex="1" parent="QbTCmA_wk1OMmVpmayp_-147">
          <mxGeometry x="620" y="138" width="80" height="80" as="geometry" />
        </mxCell>
        <mxCell id="QbTCmA_wk1OMmVpmayp_-107" value="" style="group" vertex="1" connectable="0" parent="QbTCmA_wk1OMmVpmayp_-147">
          <mxGeometry width="290" height="190" as="geometry" />
        </mxCell>
        <mxCell id="QbTCmA_wk1OMmVpmayp_-108" style="edgeStyle=orthogonalEdgeStyle;rounded=0;orthogonalLoop=1;jettySize=auto;html=1;entryX=0.375;entryY=0.95;entryDx=0;entryDy=0;entryPerimeter=0;exitX=1;exitY=0.5;exitDx=0;exitDy=0;" edge="1" parent="QbTCmA_wk1OMmVpmayp_-107" target="QbTCmA_wk1OMmVpmayp_-115" source="QbTCmA_wk1OMmVpmayp_-110">
          <mxGeometry relative="1" as="geometry">
            <mxPoint x="170" y="90" as="sourcePoint" />
            <Array as="points">
              <mxPoint x="230" y="110" />
            </Array>
          </mxGeometry>
        </mxCell>
        <mxCell id="QbTCmA_wk1OMmVpmayp_-109" style="edgeStyle=orthogonalEdgeStyle;rounded=0;orthogonalLoop=1;jettySize=auto;html=1;exitX=0.5;exitY=0;exitDx=0;exitDy=0;entryX=0.5;entryY=1;entryDx=0;entryDy=0;" edge="1" parent="QbTCmA_wk1OMmVpmayp_-107" source="QbTCmA_wk1OMmVpmayp_-110" target="QbTCmA_wk1OMmVpmayp_-116">
          <mxGeometry relative="1" as="geometry" />
        </mxCell>
        <mxCell id="QbTCmA_wk1OMmVpmayp_-118" style="edgeStyle=orthogonalEdgeStyle;rounded=0;orthogonalLoop=1;jettySize=auto;html=1;entryX=0.5;entryY=1;entryDx=0;entryDy=0;" edge="1" parent="QbTCmA_wk1OMmVpmayp_-107" source="QbTCmA_wk1OMmVpmayp_-110" target="QbTCmA_wk1OMmVpmayp_-111">
          <mxGeometry relative="1" as="geometry" />
        </mxCell>
        <mxCell id="QbTCmA_wk1OMmVpmayp_-110" value="Categoria" style="rounded=0;whiteSpace=wrap;html=1;" vertex="1" parent="QbTCmA_wk1OMmVpmayp_-107">
          <mxGeometry x="80" y="90" width="90" height="40" as="geometry" />
        </mxCell>
        <mxCell id="QbTCmA_wk1OMmVpmayp_-111" value="ID_categoria" style="ellipse;whiteSpace=wrap;html=1;" vertex="1" parent="QbTCmA_wk1OMmVpmayp_-107">
          <mxGeometry x="-32" width="100" height="40" as="geometry" />
        </mxCell>
        <mxCell id="QbTCmA_wk1OMmVpmayp_-115" value="Descripcion" style="ellipse;whiteSpace=wrap;html=1;" vertex="1" parent="QbTCmA_wk1OMmVpmayp_-107">
          <mxGeometry x="200" width="80" height="40" as="geometry" />
        </mxCell>
        <mxCell id="QbTCmA_wk1OMmVpmayp_-116" value="Name" style="ellipse;whiteSpace=wrap;html=1;" vertex="1" parent="QbTCmA_wk1OMmVpmayp_-107">
          <mxGeometry x="86" width="80" height="40" as="geometry" />
        </mxCell>
        <mxCell id="QbTCmA_wk1OMmVpmayp_-124" value="1 : N" style="text;html=1;strokeColor=none;fillColor=none;align=center;verticalAlign=middle;whiteSpace=wrap;rounded=0;" vertex="1" parent="QbTCmA_wk1OMmVpmayp_-107">
          <mxGeometry x="120" y="160" width="60" height="30" as="geometry" />
        </mxCell>
        <mxCell id="QbTCmA_wk1OMmVpmayp_-121" style="edgeStyle=orthogonalEdgeStyle;rounded=0;orthogonalLoop=1;jettySize=auto;html=1;entryX=0;entryY=0.5;entryDx=0;entryDy=0;exitX=0.5;exitY=0;exitDx=0;exitDy=0;" edge="1" parent="QbTCmA_wk1OMmVpmayp_-147" source="QbTCmA_wk1OMmVpmayp_-119" target="QbTCmA_wk1OMmVpmayp_-84">
          <mxGeometry relative="1" as="geometry" />
        </mxCell>
        <mxCell id="QbTCmA_wk1OMmVpmayp_-122" style="edgeStyle=orthogonalEdgeStyle;rounded=0;orthogonalLoop=1;jettySize=auto;html=1;entryX=0.5;entryY=1;entryDx=0;entryDy=0;" edge="1" parent="QbTCmA_wk1OMmVpmayp_-147" source="QbTCmA_wk1OMmVpmayp_-119" target="QbTCmA_wk1OMmVpmayp_-110">
          <mxGeometry relative="1" as="geometry">
            <mxPoint x="120" y="138" as="targetPoint" />
          </mxGeometry>
        </mxCell>
        <mxCell id="QbTCmA_wk1OMmVpmayp_-119" value="Tiene" style="rhombus;whiteSpace=wrap;html=1;" vertex="1" parent="QbTCmA_wk1OMmVpmayp_-147">
          <mxGeometry x="240" y="148" width="80" height="80" as="geometry" />
        </mxCell>
        <mxCell id="QbTCmA_wk1OMmVpmayp_-149" style="edgeStyle=orthogonalEdgeStyle;rounded=0;orthogonalLoop=1;jettySize=auto;html=1;entryX=0.5;entryY=0;entryDx=0;entryDy=0;" edge="1" parent="1" source="QbTCmA_wk1OMmVpmayp_-148" target="QbTCmA_wk1OMmVpmayp_-129">
          <mxGeometry relative="1" as="geometry" />
        </mxCell>
        <mxCell id="QbTCmA_wk1OMmVpmayp_-150" style="edgeStyle=orthogonalEdgeStyle;rounded=0;orthogonalLoop=1;jettySize=auto;html=1;entryX=0.5;entryY=1;entryDx=0;entryDy=0;" edge="1" parent="1" source="QbTCmA_wk1OMmVpmayp_-148" target="QbTCmA_wk1OMmVpmayp_-84">
          <mxGeometry relative="1" as="geometry">
            <mxPoint x="480" y="190" as="targetPoint" />
          </mxGeometry>
        </mxCell>
        <mxCell id="QbTCmA_wk1OMmVpmayp_-148" value="Tiene" style="rhombus;whiteSpace=wrap;html=1;" vertex="1" parent="1">
          <mxGeometry x="414" y="373" width="80" height="80" as="geometry" />
        </mxCell>
      </root>
    </mxGraphModel>
  </diagram>
</mxfile>
